<?xml version="1.0" encoding="UTF-8" standalone="no"?>
<!-- Created with Inkscape (http://www.inkscape.org/) -->

<svg
   xmlns:dc="http://purl.org/dc/elements/1.1/"
   xmlns:cc="http://creativecommons.org/ns#"
   xmlns:rdf="http://www.w3.org/1999/02/22-rdf-syntax-ns#"
   xmlns:svg="http://www.w3.org/2000/svg"
   xmlns="http://www.w3.org/2000/svg"
   xmlns:inkscape="http://www.inkscape.org/namespaces/inkscape"
   version="1.1"
   width="16"
   height="16"
   id="svg2">
  <defs
     id="defs4">
    <inkscape:path-effect
       effect="spiro"
       id="path-effect3037" />
    <inkscape:path-effect
       effect="spiro"
       id="path-effect3027" />
    <inkscape:path-effect
       effect="spiro"
       id="path-effect3019" />
    <inkscape:path-effect
       effect="spiro"
       id="path-effect3011" />
    <inkscape:path-effect
       effect="spiro"
       id="path-effect3007" />
    <inkscape:path-effect
       effect="spiro"
       id="path-effect3037-2" />
  </defs>
  <metadata
     id="metadata7">
    <rdf:RDF>
      <cc:Work
         rdf:about="">
        <dc:format>image/svg+xml</dc:format>
        <dc:type
           rdf:resource="http://purl.org/dc/dcmitype/StillImage" />
        <dc:title></dc:title>
      </cc:Work>
    </rdf:RDF>
  </metadata>
  <g
     transform="translate(0,-1036.3622)"
     id="layer1">
    <path
       d="m 183.84777,448.9223 a 3.1567266,4.6719556 0 1 1 -6.31346,0 3.1567266,4.6719556 0 1 1 6.31346,0 z"
       transform="matrix(1.3263395,0,0,1.4517084,-231.5564,393.82657)"
       id="path2989"
       style="fill:#1a1a1a;fill-opacity:1;stroke:none" />
    <path
       d="m 3.9283704,1044.7988 8.3616166,0.069"
       id="path3005"
       style="fill:#ffff00;stroke:#ffff00;stroke-width:1.63252759px;stroke-linecap:butt;stroke-linejoin:miter;stroke-opacity:1" />
    <path
       d="m 4.2614565,1047.524 7.7278985,0"
       id="path3009"
       style="fill:#ffff00;stroke:#ffff00;stroke-width:1.58391321px;stroke-linecap:butt;stroke-linejoin:miter;stroke-opacity:1" />
    <path
       d="m 5.2975339,1050.1094 5.3313881,0"
       id="path3017"
       style="fill:none;stroke:#ffff00;stroke-width:1.63411689px;stroke-linecap:butt;stroke-linejoin:miter;stroke-opacity:1" />
    <path
       d="m 4.0983444,1036.9361 2.0535149,2.7285"
       id="path3035"
       style="fill:none;stroke:#000000;stroke-width:0.42679787px;stroke-linecap:butt;stroke-linejoin:miter;stroke-opacity:1" />
    <path
       d="m 9.8789983,1039.5249 2.0535277,-2.7287"
       id="path3035-1"
       style="fill:none;stroke:#000000;stroke-width:0.42679787px;stroke-linecap:butt;stroke-linejoin:miter;stroke-opacity:1" />
    <path
       d="m 175.22322,452.25058 a 1.5848215,3.0133927 0 1 1 -3.16964,0 1.5848215,3.0133927 0 1 1 3.16964,0 z"
       transform="matrix(1.174609,0.61588232,-0.62876471,1.1505431,85.39017,420.00478)"
       id="path3060"
       style="fill:#ffffff;fill-opacity:1;stroke:#000000;stroke-opacity:1" />
    <path
       d="m 175.22322,452.25058 a 1.5848215,3.0133927 0 1 1 -3.16964,0 1.5848215,3.0133927 0 1 1 3.16964,0 z"
       transform="matrix(-1.174609,0.61588232,0.62876471,1.1505431,-68.87333,419.96983)"
       id="path3060-6"
       style="fill:#ffffff;fill-opacity:1;stroke:#000000;stroke-width:0.99945092;stroke-miterlimit:4;stroke-opacity:1;stroke-dasharray:none" />
  </g>
</svg>
